<svg width="562" height="413" viewBox="0 0 562 413" fill="none" xmlns="http://www.w3.org/2000/svg">
<path fill-rule="evenodd" clip-rule="evenodd" d="M212.07 407.717C305.288 433.932 350.646 333.333 430.516 340.986C474.238 345.176 561.386 366.411 561.191 211.729C560.703 111.866 468.659 86.8601 373.741 138.073C345.81 148.996 323.759 145.611 299.817 134.758C275.875 123.905 245.082 75.4547 187.048 65.4872C12.4028 35.4924 -137.028 309.546 212.07 407.717Z" fill="url(#paint0_linear_104_878)"/>
<path fill-rule="evenodd" clip-rule="evenodd" d="M433.592 156.48C435.341 155.629 438.479 157.278 436.658 159.932C432.628 165.808 448.216 177.547 443.212 167.203C442.677 166.097 439.933 158.448 443.815 162.398C447.698 166.346 453.11 183.795 449.609 189.807C446.537 195.083 438.407 197.594 427.309 197.891L426.809 197.902L426.573 197.916C420.031 198.22 415.07 194.171 411.867 186.286L411.714 185.902C408.472 177.648 409.361 171.032 414.604 166.571C414.699 166.49 414.8 166.417 414.908 166.353L415.073 166.264L433.592 156.48Z" fill="white"/>
<path fill-rule="evenodd" clip-rule="evenodd" d="M80.1517 2.01464C79.3882 0.932559 78.1522 0.30876 76.8308 0.469826C75.479 0.634452 74.348 1.57504 73.936 2.87247L73.8266 3.21952C73.7429 3.47491 73.6441 3.76858 73.5276 4.09872C73.1965 5.0402 72.7934 6.08579 72.3182 7.2097C70.9674 10.4061 69.3042 13.5963 67.3198 16.5631C63.0369 22.9666 57.8757 27.424 51.8263 29.1405C50.8813 29.4084 50.3322 30.3926 50.6001 31.3385C50.7362 31.8181 59.5717 36.2337 68.5906 35.1205C77.3389 34.041 86.2812 27.4453 86.3533 26.9968L86.4636 26.0616L86.4947 25.7483C87.1212 18.9533 85.9315 11.2773 81.3558 3.84154C80.9758 3.22397 80.5744 2.6153 80.1517 2.01464Z" fill="#F7FAFC"/>
<path fill-rule="evenodd" clip-rule="evenodd" d="M98.3562 3.99193L98.3099 4.35143C97.6754 8.95206 95.9001 15.3582 92.6877 20.1911C88.734 26.1408 83.1536 30.6907 77.5457 33.6237C69.455 37.8532 60.6497 38.6274 51.9788 33.1325L51.5962 32.886C47.0401 29.9058 43.582 28.4713 38.8381 29.6549C34.0933 30.8393 31.7895 34.2947 29.7415 37.5009L29.6476 37.6361C29.3194 38.0748 28.8391 38.3783 28.2979 38.4851L19.3027 39.9097L22.5784 43.9791C23.5643 45.2134 24.2652 46.1023 24.6808 46.6469L28.2812 51.3899C39.0117 65.4641 50.5595 78.9011 73.0785 74.2498L73.842 74.0861C79.8077 72.7593 84.8097 76.3214 91.085 81.5708L92.4261 82.7C94.0857 84.1051 99.1046 88.5286 101.158 90.659L101.829 91.3629L102.449 92.0294C102.578 92.17 102.701 92.3052 102.817 92.4343L103.458 93.156L103.851 92.6923C108.098 87.5783 110.759 79.7892 112.137 73.3644C112.656 70.9368 112.955 68.6125 113.08 66.4679L113.095 66.1885C113.127 65.5611 113.141 65.0138 113.144 64.5573V64.2174L112.502 64.4061C105.076 66.5124 96.7188 66.7215 88.5649 65.7809C86.5956 65.5531 108.203 48.0529 103.767 25.3888C102.757 20.224 102.115 13.3178 100.349 8.62993C99.7924 7.15096 99.2158 5.79925 98.6436 4.59081L98.3562 3.99193Z" fill="white"/>
<path fill-rule="evenodd" clip-rule="evenodd" d="M434.532 159.279L416.045 168.265C411.614 172.036 410.861 177.644 413.785 185.088C414.811 187.701 417.377 193.923 417.377 191.479C417.377 190.716 434.532 179.503 437.823 180.6C440.866 181.614 435.4 172.47 433.866 168.265L434.532 159.049L435.04 158.131" fill="#F7FAFC"/>
<path fill-rule="evenodd" clip-rule="evenodd" d="M409.868 166.023C411.096 166.023 404.134 169.298 404.493 175.336C404.852 181.374 409.571 192.504 408.423 192.942C407.276 193.381 405.1 190.137 404.661 188.989C401.932 181.847 401.415 178.934 401.513 174.769C401.641 169.316 404.508 166.023 409.868 166.023Z" fill="#F7FAFC"/>
<path d="M440.848 182.86C443.502 182.86 445.654 178 445.654 172.005C445.654 166.009 443.502 161.149 440.848 161.149C438.194 161.149 436.043 166.009 436.043 172.005C436.043 178 438.194 182.86 440.848 182.86Z" fill="#F7FAFC"/>
<path fill-rule="evenodd" clip-rule="evenodd" d="M105.192 286.462C105.192 267.626 107.285 259.437 129.759 249.157C175.819 230.54 175.819 229.822 264.058 195.707C287.394 186.731 336.591 208.232 357.984 199.221C372.246 193.215 385.583 188.754 397.366 182.796C398.507 190.247 405.883 202.862 408.481 205.03C394.683 207.926 381.336 212.404 368.439 218.465C340.56 231.565 357.081 227.995 312.923 269.638C309.181 273.167 295.429 281.213 275.545 289.595C275.545 289.595 235.5 284.217 219.44 277.537C203.095 270.738 178.329 249.157 178.329 249.157C178.329 249.157 149.443 268.002 132.837 276.473C125.065 280.437 105.192 286.462 105.192 286.462Z" fill="white"/>
<path fill-rule="evenodd" clip-rule="evenodd" d="M105.191 276.674C105.191 272.253 104.724 269.167 105.191 265.754C106.714 254.627 112.682 248.935 129.88 241.067C175.94 222.45 175.817 220.034 264.057 185.919C287.392 176.943 336.589 198.444 357.983 189.433C372.244 183.426 385.582 178.965 397.365 173.008C397.398 173.221 396.172 183.403 396.172 183.403C396.172 183.403 367.083 198.764 347.842 202.021C327.398 205.482 299.317 189.433 271.277 197.326C228.578 209.346 130.179 247.127 118.537 256.595C109.391 264.034 105.191 276.674 105.191 276.674Z" fill="#F7FAFC"/>
<path fill-rule="evenodd" clip-rule="evenodd" d="M80.1517 2.01464C79.3882 0.932559 78.1522 0.30876 76.8308 0.469826C75.479 0.634452 74.348 1.57504 73.936 2.87247L73.8266 3.21952C73.7429 3.47491 73.6441 3.76858 73.5276 4.09872C73.1965 5.0402 72.7934 6.08579 72.3182 7.2097C70.9674 10.4061 69.3042 13.5963 67.3198 16.5631C63.0369 22.9666 57.8757 27.424 51.8263 29.1405C50.8813 29.4084 50.3322 30.3926 50.6001 31.3385C50.8688 32.2836 65.5668 25.5855 70.2778 18.5422C72.3992 15.3716 74.1638 11.9865 75.5974 8.59612C76.0299 7.57277 76.4063 6.60904 76.7284 5.72006L76.885 5.28135C77.0114 4.92362 77.12 4.60238 77.2116 4.31851C77.2348 4.11651 77.257 4.04888 77.2766 4.11562C87.4727 11.0904 83.4647 28.4011 84.4436 28.4856C85.3788 28.5657 86.2064 27.9081 86.3533 26.9968L86.4636 26.0616L86.4947 25.7484C87.1212 18.9533 85.9315 11.2773 81.3558 3.84154C80.9758 3.22397 80.5744 2.6153 80.1517 2.01464Z" fill="#F7FAFC"/>
<path fill-rule="evenodd" clip-rule="evenodd" d="M101.382 1.96303L101.606 2.36435L101.88 2.8787C102.046 3.19549 102.231 3.56301 102.433 3.97858C103.132 5.4175 103.838 7.04596 104.514 8.84171C106.418 13.8962 107.749 19.3511 108.204 25.0347C108.82 32.7472 107.707 40.0254 104.887 46.6469L104.646 47.2031C102.355 52.3759 99.0183 57.1154 94.6864 61.3672L94.2566 61.7827L94.6215 61.8005C100.86 62.063 107.03 61.5042 112.453 59.7752C113.616 59.4041 114.884 59.5954 115.886 60.2922C116.886 60.9881 117.507 62.1075 117.569 63.324L117.584 63.7013L117.593 64.2005V64.3927C117.593 65.0886 117.572 65.8699 117.522 66.7251C117.386 69.0877 117.059 71.6363 116.488 74.297C114.877 81.8137 111.655 88.8535 106.39 94.7853C105.691 95.5729 104.708 96.0445 103.663 96.1005L103.421 96.1059C102.306 96.0854 101.286 95.6236 100.561 94.836L100.031 94.2194L99.7712 93.9239L99.2186 93.3108L98.6134 92.6567C98.4025 92.4334 98.1836 92.2029 97.9567 91.968C96.0239 89.9631 93.89 87.976 91.6235 86.1474C85.3428 81.0787 79.2837 78.2168 74.1091 78.5274C65.6455 79.0355 58.6361 78.6404 52.1329 76.8153C43.7263 74.4571 37.1243 69.8289 32.756 62.4608L32.5111 62.0408C30.2494 58.0969 26.909 53.5532 22.9687 48.8245C21.751 47.3624 20.55 45.9724 19.4052 44.6874L18.9181 44.1428C18.1382 43.2752 17.4992 42.5838 17.2313 42.3026C16.2425 41.2606 15.8988 39.7656 16.3309 38.3987L16.3943 38.2136C16.8689 36.9367 17.9726 35.9899 19.3178 35.7238L26.5313 34.2982L26.6153 34.1772C29.1965 30.5083 32.8818 27.4008 37.7775 26.1488C42.8836 24.8433 48.2566 25.9788 53.6679 29.4119L54.0452 29.6549C61.3537 34.4353 68.5972 34.171 75.4848 30.5706C80.404 27.9979 85.0936 23.6296 88.646 18.2841C91.9501 13.3133 93.9132 7.9999 94.0537 3.80594C94.1116 2.05379 95.3209 0.549023 97.0206 0.120106C98.722 -0.310591 100.502 0.443128 101.382 1.96303ZM98.3572 3.99193L98.3109 4.35143C97.6773 8.95206 95.9011 15.3582 92.6896 20.1911C88.735 26.1408 83.1546 30.6907 77.5467 33.6237C69.4569 37.8532 60.6507 38.6274 51.9798 33.1325L51.5972 32.886C47.041 29.9058 43.583 28.4713 38.8391 29.6549C34.0952 30.8393 31.7906 34.2947 29.7426 37.5009L29.6487 37.6361C29.3205 38.0748 28.8403 38.3783 28.299 38.4851L19.3038 39.9097L22.5795 43.9791C23.5655 45.2134 24.2663 46.1023 24.6819 46.6469L28.2824 51.3908C39.0126 65.4641 50.5605 78.9011 73.0795 74.2498L73.843 74.0861C79.8087 72.7593 84.8107 76.3214 91.086 81.5708L92.4271 82.7C94.0867 84.1051 99.1055 88.5286 101.159 90.659L101.83 91.3629L102.45 92.0294C102.579 92.17 102.701 92.3052 102.819 92.4343L103.459 93.156L103.852 92.6923C108.099 87.5783 110.76 79.7892 112.138 73.3644C112.658 70.9368 112.956 68.6125 113.081 66.4679L113.096 66.1885C113.128 65.5611 113.142 65.0138 113.145 64.5573V64.2174L112.503 64.4061C105.077 66.5124 96.7198 66.7215 88.5659 65.7809C86.5966 65.554 108.204 48.0529 103.768 25.3888C102.758 20.224 102.116 13.3178 100.35 8.62993C99.7943 7.15096 99.2168 5.79925 98.6446 4.59081L98.3572 3.99193Z" fill="#F7FAFC"/>
<path fill-rule="evenodd" clip-rule="evenodd" d="M41.9534 44.0485C43.6709 44.0485 45.068 42.6514 45.068 40.934C45.068 39.2165 43.6709 37.8194 41.9534 37.8194C40.236 37.8194 38.8389 39.2165 38.8389 40.934C38.8389 42.6514 40.236 44.0485 41.9534 44.0485Z" fill="black"/>
<path d="M44.6228 56.5067C47.3258 56.5067 49.5171 54.7139 49.5171 52.5023C49.5171 50.2907 47.3258 48.4979 44.6228 48.4979C41.9198 48.4979 39.7285 50.2907 39.7285 52.5023C39.7285 54.7139 41.9198 56.5067 44.6228 56.5067Z" fill="url(#paint1_linear_104_878)"/>
<path d="M44.6228 56.5067C47.3258 56.5067 49.5171 54.7139 49.5171 52.5023C49.5171 50.2907 47.3258 48.4979 44.6228 48.4979C41.9198 48.4979 39.7285 50.2907 39.7285 52.5023C39.7285 54.7139 41.9198 56.5067 44.6228 56.5067Z" fill="url(#paint2_linear_104_878)"/>
<path fill-rule="evenodd" clip-rule="evenodd" d="M101.381 1.96303L101.606 2.36435L101.88 2.8787C102.044 3.19549 102.23 3.56301 102.432 3.97858C103.132 5.4175 103.837 7.04596 104.514 8.84171C106.418 13.8962 107.748 19.3511 108.203 25.0347C108.82 32.7472 107.707 40.0254 104.887 46.6469L104.645 47.2031C102.355 52.3759 99.0179 57.1154 94.6852 61.3672L94.2562 61.7827L94.6211 61.8005C100.86 62.063 107.029 61.5042 112.452 59.7752C113.615 59.4041 114.883 59.5954 115.885 60.2922C116.886 60.9881 117.507 62.1075 117.569 63.324L117.583 63.7013L117.592 64.2005V64.3927C117.592 65.0886 117.572 65.8699 117.522 66.7251C117.385 69.0877 117.057 71.6363 116.488 74.297C114.876 81.8137 111.655 88.8535 106.39 94.7853C105.69 95.5729 104.707 96.0445 103.662 96.1006L103.421 96.1059C102.304 96.0854 101.285 95.6236 100.561 94.836L100.031 94.2194L99.7708 93.9239L99.2181 93.3108L98.6121 92.6568C98.4021 92.4334 98.1832 92.2029 97.9563 91.968C96.0226 89.9631 93.8896 87.9761 91.6231 86.1474C85.3415 81.0787 79.2833 78.2168 74.1087 78.5274C65.6443 79.0355 58.6356 78.6404 52.1325 76.8153C43.725 74.4572 37.1239 69.8289 32.7554 62.4608L32.5105 62.0408C30.2488 58.0969 26.9084 53.5532 22.9682 48.8245C21.7505 47.3624 20.5494 45.9724 19.4046 44.6874L18.9175 44.1428C18.1376 43.2752 17.4986 42.5838 17.2308 42.3026C16.2419 41.2606 15.8982 39.7656 16.3303 38.3987L16.3937 38.2136C16.8683 36.9367 17.9721 35.9899 19.3173 35.7238L26.5308 34.2982L26.6148 34.1772C29.1959 30.5083 32.8812 27.4008 37.7762 26.1488C42.5949 24.9163 47.652 25.8587 52.7536 28.854C58.4043 26.9595 63.2567 22.6374 67.319 16.564C69.3043 13.5963 70.9675 10.4061 72.3183 7.21058C72.7935 6.08579 73.1957 5.04109 73.5276 4.09871C73.6442 3.76946 73.743 3.4758 73.8266 3.21952L73.9361 2.87247C74.3472 1.57504 75.4782 0.634448 76.8308 0.470712C78.1514 0.308756 79.3883 0.932555 80.1509 2.01553C80.5745 2.6153 80.9758 3.22486 81.3558 3.84243C84.9073 9.61412 86.4192 15.5309 86.6247 21.0676C87.3313 20.1751 88.0067 19.2452 88.6456 18.2841C91.9488 13.3133 93.9128 7.9999 94.0525 3.80594C94.1112 2.05379 95.3205 0.549023 97.0202 0.120106C98.7216 -0.310591 100.501 0.443128 101.381 1.96303ZM75.4844 30.5706C68.7944 34.0677 61.768 34.4175 54.6731 30.0535C59.4499 27.8449 67.1143 23.2718 70.2778 18.5431C72.3984 15.3725 74.1639 11.9865 75.5966 8.59612C76.029 7.57366 76.4055 6.60992 76.7285 5.72006L76.8851 5.28224C77.0106 4.92362 77.1191 4.60237 77.2117 4.3194C77.2348 4.11651 77.2562 4.04888 77.2766 4.11562C84.0539 8.75273 84.5549 17.9558 84.4169 23.6305C81.6931 26.5377 78.6364 28.9225 75.4844 30.5706ZM77.5463 33.6237C80.2604 32.2035 82.9691 30.405 85.4901 28.2516C85.6832 28.1394 85.855 27.9899 85.9938 27.8137C88.4854 25.6166 90.7768 23.0672 92.6883 20.1911C95.9007 15.3582 97.676 8.95206 98.3105 4.35143L98.3568 3.99193L98.6442 4.59081C99.2164 5.79925 99.793 7.15096 100.35 8.62993C101.579 11.8922 102.263 16.2285 102.907 20.305V20.3059C103.187 22.0865 103.46 23.8182 103.768 25.3888C107.167 42.76 95.268 57.0976 90.4111 62.9494C88.9313 64.7327 88.1055 65.7275 88.5655 65.7809C96.7194 66.7215 105.075 66.5124 112.503 64.4061L113.145 64.2174V64.5573C113.142 65.0138 113.128 65.5611 113.096 66.1885L113.081 66.4679C112.956 68.6125 112.657 70.9368 112.137 73.3644C110.76 79.7892 108.099 87.5783 103.852 92.6924L103.458 93.156L102.818 92.4343C102.701 92.3053 102.578 92.17 102.449 92.0294L101.83 91.3629L101.159 90.659C99.1051 88.5286 94.0863 84.1051 92.4267 82.7L91.0856 81.5708C84.8103 76.3214 79.8083 72.7593 73.8426 74.0861L73.0791 74.2498C50.5601 78.9011 39.0122 65.4641 28.2818 51.3908L24.6814 46.6469C24.2657 46.1023 23.5649 45.2134 22.579 43.9791L19.3032 39.9097L28.2984 38.4851C28.8397 38.3783 29.3199 38.0748 29.6482 37.6361L29.742 37.5009C31.7901 34.2947 34.0939 30.8393 38.8387 29.6549C43.5826 28.4713 47.0406 29.9058 51.5968 32.886L51.9794 33.1325C60.6503 38.6274 69.4556 37.8532 77.5463 33.6237ZM433.592 156.48C435.341 155.629 438.479 157.278 436.658 159.933C433.903 163.95 436.965 173.28 438.83 178.962V178.963V178.963C439.692 181.591 440.299 183.439 439.955 183.619C438.865 184.188 437.522 183.767 436.952 182.678C433.871 176.781 432.101 172.099 431.659 168.54C431.44 166.769 431.391 165.056 431.515 163.402L431.532 163.212L417.285 170.137L417.104 170.302C413.888 173.319 412.474 176.822 414.827 183.026L414.966 183.386C417.521 189.891 421.846 194.557 426.346 194.363L426.697 194.345C436.697 194.144 442.673 191.135 444.806 187.471C447.488 182.864 448.216 177.548 443.212 167.203C442.678 166.098 439.933 158.449 443.816 162.398C447.698 166.346 453.11 183.795 449.61 189.807C446.687 194.826 439.188 197.343 428.911 197.831C428.971 198.093 428.984 198.371 428.943 198.652C427.97 205.258 424.954 209.414 419.912 210.616C416.056 211.535 411.912 210.318 408.116 207.383C394.779 210.247 381.87 214.612 369.386 220.479L367.537 221.354C361.167 224.397 357.515 226.436 354.848 228.419C353.284 229.581 351.992 230.773 350.603 232.305L350.379 232.56C349.704 233.342 348.236 235.135 346.565 237.176L346.562 237.18L346.56 237.182L346.559 237.183L346.558 237.185L346.553 237.191L346.55 237.195C344.327 239.91 341.749 243.058 340.21 244.84L339.466 245.697C333.2 252.876 325.304 261.021 314.45 271.257L314.146 271.536C310.076 275.172 299.263 281.32 285.778 287.52C322.993 286.197 349.829 271.993 366.54 244.882C367.275 243.689 368.917 243.465 369.946 244.417C398.682 271.031 431.979 283.348 469.964 281.425C508.049 279.496 535.998 269.597 553.896 251.825C554.767 250.959 556.176 250.965 557.042 251.837C557.908 252.708 557.902 254.116 557.031 254.982C538.256 273.626 498.394 287.616 459.303 289.595C421.287 291.519 398.603 275.856 369.6 250.11L368.891 249.477L368.638 249.866C350.268 277.704 310.36 298.008 270.534 298.296L269.286 298.3C228.55 298.3 205.057 278.575 177.574 251.616L177.359 251.405L177.261 251.489L176.543 252.093L175.5 252.97L174.861 253.509C149.109 275.18 129.894 291.35 100.989 295.481L100.067 295.61C67.4774 302.203 18.0501 284.64 10.4545 276.03C3.49514 268.143 11.6126 273.046 13.8411 274.392H13.8413C14.0449 274.515 14.1993 274.608 14.2885 274.659C35.8585 287.009 60.7286 291.712 90.5677 287.642C94.6852 287.08 98.7777 286.337 102.843 285.411L102.796 284.973C101.494 272.599 101.486 267.19 103.363 260.983C105.916 252.54 112.116 246.124 123.268 241.023L126.339 239.665C140.114 233.594 151.054 229.036 162.402 224.608L163.233 224.284C164.505 223.789 165.795 223.291 167.111 222.786L168.4 222.294C168.866 222.129 174.93 219.725 184.151 216.069L184.154 216.068L184.178 216.059L184.183 216.057L184.185 216.056C205.5 207.606 243.637 192.487 268.516 182.867C273.898 180.797 280.414 180.11 288.407 180.522L289.096 180.561C295.084 180.913 300.973 181.726 310.627 183.396L319.11 184.882C328.582 186.521 333.172 187.168 338.531 187.55C340.215 187.67 341.816 187.819 343.337 187.96H343.338C348.973 188.483 353.507 188.905 357.121 187.383C360.335 186.03 363.485 184.723 366.572 183.442H366.573C376.671 179.254 386.089 175.347 394.829 171.002C395.429 167.115 396.961 164.245 399.36 162.355C403.062 159.44 408.303 159.391 412.848 161.158C413.993 161.604 414.56 162.893 414.115 164.038C413.971 164.409 413.046 164.238 411.736 163.997C408.997 163.491 404.579 162.676 402.113 165.85C399.37 169.382 398.459 174.792 400.888 185.443C402.649 193.163 414.06 206.289 418.88 206.289C424.254 206.289 425.51 201.071 426.223 198.113L426.267 197.927C419.876 198.093 415.02 194.049 411.869 186.287L411.715 185.903C408.473 177.648 409.362 171.032 414.604 166.571C414.699 166.49 414.801 166.417 414.908 166.354L415.074 166.265L433.592 156.48ZM404.011 203.361C403.786 203.089 403.563 202.809 403.344 202.524C403.259 202.435 403.18 202.345 403.11 202.261C402.908 202.015 402.7 201.765 402.488 201.51C400.764 199.439 398.766 197.039 397.202 193.58L396.975 193.075C394.465 187.454 394.166 181.139 394.32 175.933L394.343 175.328L394.211 175.395C383.843 180.526 372.565 185.674 360.376 190.838L358.848 191.484C353.629 193.682 347.112 195.235 338.853 194.701L338.215 194.657C332.572 194.255 327.827 193.58 317.875 191.853L310.446 190.55C289.501 186.924 279.02 186.358 270.384 189.588C270.384 189.588 141.59 238.037 125.095 245.079C115.063 249.668 111.659 253.987 107.511 260.983C105.364 264.602 105.582 274.585 105.733 281.519V281.521C105.758 282.683 105.781 283.76 105.792 284.707C130.144 278.616 153.553 265.954 176.033 246.695C176.92 245.936 178.242 245.99 179.063 246.82C180.882 248.659 182.731 250.435 184.61 252.149L277.356 213.401C277.61 213.295 277.873 213.239 278.133 213.23C278.831 212.9 279.585 212.628 280.393 212.413C288.48 210.263 294.939 213.761 299.401 222.371L307.485 216.474C308.677 215.605 310.371 216.115 310.883 217.499C318.26 237.437 316.111 251.098 303.963 257.69C291.712 264.338 281.059 258.856 272.753 242.241C272.332 241.398 272.497 240.424 273.08 239.767C271.1 231.724 270.733 225.315 272.08 220.674L190.822 257.499C202.973 267.363 216.314 274.803 230.857 279.821C231.19 279.503 231.551 279.229 231.905 279.035C244.155 272.325 274.336 264.487 281.791 262.551C282.436 262.383 282.91 262.26 283.189 262.185C286.687 261.248 283.103 264.516 282.047 265.004L281.913 265.061L237.863 282.024C250.967 285.757 264.998 287.622 279.964 287.622C280.816 287.622 281.661 287.616 282.502 287.602L283.487 286.962H283.488L283.489 286.961L283.491 286.96C292.911 280.837 308.662 270.599 311.397 268.02L312.673 266.813C321.743 258.012 328.492 249.57 334.385 242.2C340.849 234.114 346.281 227.321 352.61 222.763C357.531 219.219 359.315 218.41 363.507 216.507C364.628 215.998 365.921 215.411 367.493 214.672C378.611 209.447 391.238 206.422 403.09 203.582L404.011 203.361ZM281.536 216.713C287.944 215.009 292.744 218.019 296.403 226.422L286.95 233.916L286.941 233.919L277.174 237.773L276.93 236.701C274.255 224.577 275.998 218.185 281.536 216.713ZM296.403 226.422L286.958 233.913C287.148 233.838 287.343 233.791 287.538 233.77C287.717 233.751 287.895 233.754 288.07 233.778C288.484 233.833 288.879 234.005 289.203 234.276C289.415 234.454 289.597 234.673 289.734 234.928C291.963 238.942 293.687 239.898 295.436 238.917C297.289 237.878 297.871 233.973 296.517 226.995L296.403 226.422ZM173.866 317.768C174.9 317.102 182.031 313.623 175.68 320.163C169.329 326.703 119.867 354.449 93.167 355.986C67.4329 357.467 44.5846 346.72 24.7052 332.654L24.0464 332.184L23.9151 332.353C23.0351 333.469 22.1308 334.482 21.2016 335.39L20.8019 335.774C19.1181 337.354 16.2038 339.144 11.9933 341.223C10.8917 341.767 6.99927 342.268 9.0134 340.213C11.0276 338.159 15.436 335.202 18.0034 333.506C19.6812 332.398 20.2112 331.103 20.7369 329.817C21.0156 329.135 21.2932 328.456 21.74 327.809C22.4576 326.772 23.8943 326.538 24.9043 327.294C44.5019 341.982 67.3946 349.812 93.167 348.329C119.045 346.839 145.773 335.844 173.866 317.768ZM326.077 331.952C326.979 331.119 326.979 325.174 326.077 326.007C316.081 335.231 295.154 343.344 269.331 344.83C243.475 346.318 223.147 342.253 208.306 332.71C207.273 332.045 202.157 330.288 205.232 333.378C208.306 336.468 242.864 352.589 269.586 351.051L270.386 351.004C296.718 349.397 315.281 341.914 326.077 331.952ZM307.824 222.23L307.691 221.83L300.993 226.717L301.115 227.408C302.463 235.286 301.543 240.435 297.809 242.684L297.613 242.798C293.719 244.981 290.053 243.439 286.989 238.952L286.854 238.753L277.848 242.391L278.056 242.769C284.94 255.191 292.571 258.647 301.55 253.934L301.841 253.779C310.859 248.886 313.081 238.899 308.136 223.198L307.824 222.23ZM45.0678 40.934C45.0678 42.6514 43.6707 44.0485 41.9533 44.0485C40.2358 44.0485 38.8387 42.6514 38.8387 40.934C38.8387 39.2165 40.2358 37.8194 41.9533 37.8194C43.6707 37.8194 45.0678 39.2165 45.0678 40.934Z" fill="black"/>
<defs>
<linearGradient id="paint0_linear_104_878" x1="-94.4136" y1="-33.4064" x2="266.379" y2="565.527" gradientUnits="userSpaceOnUse">
<stop offset="0.272391" stop-color="#FFD809"/>
<stop offset="0.748745" stop-color="#FD900C"/>
</linearGradient>
<linearGradient id="paint1_linear_104_878" x1="38.072" y1="46.28" x2="47.1923" y2="57.7938" gradientUnits="userSpaceOnUse">
<stop offset="0.272391" stop-color="#FFD809"/>
<stop offset="0.748745" stop-color="#FD900C"/>
</linearGradient>
<linearGradient id="paint2_linear_104_878" x1="38.072" y1="46.28" x2="47.1923" y2="57.7938" gradientUnits="userSpaceOnUse">
<stop offset="0.272391" stop-color="#FFD809"/>
<stop offset="0.748745" stop-color="#FD900C"/>
</linearGradient>
</defs>
</svg>
